<svg width="16" height="17" viewBox="0 0 16 17" fill="none" xmlns="http://www.w3.org/2000/svg">
<path d="M2.68328 14.5L0.449951 6.49998H4.49995L7.98328 1.31665L11.4666 6.49998H15.55L13.3166 14.5H2.68328ZM7.99995 11.8333C8.36662 11.8333 8.68062 11.7029 8.94195 11.442C9.20328 11.1811 9.33373 10.8671 9.33328 10.5C9.33284 10.1329 9.2024 9.81909 8.94195 9.55865C8.68151 9.29821 8.36751 9.16754 7.99995 9.16665C7.6324 9.16576 7.31862 9.29643 7.05862 9.55865C6.79862 9.82087 6.66795 10.1347 6.66662 10.5C6.66528 10.8653 6.79595 11.1793 7.05862 11.442C7.32128 11.7047 7.63506 11.8351 7.99995 11.8333ZM6.11662 6.49998H9.86662L7.98328 3.69998L6.11662 6.49998Z" fill="#555555"/>
</svg>
