<svg width="16" height="17" viewBox="0 0 16 17" fill="none" xmlns="http://www.w3.org/2000/svg">
<path d="M14.4201 11.3467L11.8401 13.9467L10.9401 13.0334L10.0001 13.9801L11.8334 15.8334L15.3534 12.2867L14.4201 11.3467ZM8.66675 13.8334C8.66675 11.6267 10.4601 9.83339 12.6667 9.83339C13.3334 9.83339 13.9467 9.99339 14.4934 10.2801L15.3067 7.36006L15.3334 7.16673C15.3334 6.80006 15.0334 6.50006 14.6667 6.50006H11.6134L8.55341 2.12673C8.49304 2.03657 8.41151 1.96257 8.31594 1.91118C8.22038 1.85979 8.11368 1.83258 8.00518 1.83192C7.89668 1.83126 7.78966 1.85718 7.69348 1.90741C7.5973 1.95763 7.51488 2.03064 7.45341 2.12006L4.38675 6.50006H1.33341C0.966748 6.50006 0.666748 6.80006 0.666748 7.16673L0.733415 7.46006L2.47341 13.7667C2.69341 14.2001 3.14675 14.5001 3.66675 14.5001H8.72675C8.69341 14.2801 8.66675 14.0601 8.66675 13.8334ZM8.00008 3.66006L10.0001 6.50006H6.00008L8.00008 3.66006ZM6.66675 10.5001C6.66675 9.76673 7.26675 9.16673 8.00008 9.16673C8.73341 9.16673 9.33342 9.76673 9.33342 10.5001C9.33342 11.2334 8.74008 11.8334 8.00008 11.8334C7.26008 11.8334 6.66675 11.2401 6.66675 10.5001Z" fill="#555555"/>
</svg>
