<svg width="261" height="205" viewBox="0 0 261 205" fill="none" xmlns="http://www.w3.org/2000/svg">
<path d="M135.688 164.597C172.734 164.597 202.766 134.535 202.766 97.4531C202.766 60.3707 172.734 30.3096 135.688 30.3096C98.6415 30.3096 68.6096 60.3707 68.6096 97.4531C68.6096 134.535 98.6415 164.597 135.688 164.597Z" fill="#DCDCDC"/>
<path d="M230.333 89.5905V82.3396C230.333 80.9569 229.785 79.6308 228.808 78.6531C227.831 77.6754 226.506 77.1261 225.125 77.1261H202.741C202.057 77.1261 201.38 76.9913 200.748 76.7293C200.116 76.4673 199.542 76.0833 199.059 75.5992C198.575 75.115 198.191 74.5403 197.93 73.9078C197.668 73.2753 197.533 72.5973 197.533 71.9127V64.6618C197.533 63.2791 198.082 61.953 199.059 60.9753C200.035 59.9976 201.36 59.4483 202.741 59.4483H211.322C212.703 59.4483 214.028 58.8991 215.005 57.9213C215.981 56.9436 216.53 55.6176 216.53 54.2349V46.9839C216.53 45.6013 215.981 44.2752 215.005 43.2975C214.028 42.3198 212.703 41.7705 211.322 41.7705H57.7541C56.3728 41.7705 55.048 42.3198 54.0713 43.2975C53.0945 44.2752 52.5458 45.6013 52.5458 46.9839V54.2349C52.5458 55.6176 53.0945 56.9436 54.0713 57.9213C55.048 58.8991 56.3728 59.4483 57.7541 59.4483C59.1355 59.4483 60.4602 59.9976 61.437 60.9753C62.4138 61.953 62.9625 63.2791 62.9625 64.6618V71.9127C62.9625 73.2954 62.4138 74.6214 61.437 75.5992C60.4602 76.5769 59.1355 77.1261 57.7541 77.1261H33.613C32.2317 77.1261 30.9069 77.6754 29.9302 78.6531C28.9534 79.6308 28.4047 80.9569 28.4047 82.3396V89.5905C28.4047 90.9732 28.9534 92.2993 29.9302 93.277C30.9069 94.2547 32.2317 94.8039 33.613 94.8039H57.5161C58.2001 94.8039 58.8773 94.9388 59.5092 95.2008C60.1412 95.4628 60.7153 95.8468 61.199 96.3309C61.6826 96.815 62.0663 97.3898 62.328 98.0223C62.5897 98.6548 62.7245 99.3327 62.7245 100.017V107.268C62.8521 113.903 48.3926 112.482 45.5161 112.482H45.497C44.1157 112.482 42.7909 113.031 41.8142 114.009C40.8374 114.986 40.2887 116.313 40.2887 117.695V124.946C40.2887 126.329 40.8374 127.655 41.8142 128.633C42.7909 129.61 44.1157 130.16 45.497 130.16H58.6404C60.0218 130.16 61.3465 130.709 62.3233 131.687C63.3 132.664 63.8488 133.99 63.8488 135.373V142.624C63.8488 144.007 63.3 145.333 62.3233 146.31C61.3465 147.288 60.0218 147.837 58.6404 147.837H43.875C42.4937 147.837 41.1689 148.387 40.1922 149.364C39.2154 150.342 38.6667 151.668 38.6667 153.051V160.302C38.6667 161.684 39.2154 163.011 40.1922 163.988C41.1689 164.966 42.4937 165.515 43.875 165.515H210.118C211.499 165.515 212.824 164.966 213.801 163.988C214.778 163.011 215.326 161.684 215.326 160.302V153.051C215.326 151.668 214.778 150.342 213.801 149.364C212.824 148.387 211.499 147.837 210.118 147.837H201.602C200.221 147.837 198.896 147.288 197.919 146.31C196.943 145.333 196.394 144.007 196.394 142.624V135.373C196.394 133.99 196.943 132.664 197.919 131.687C198.896 130.709 200.221 130.16 201.602 130.16H216.25C217.632 130.16 218.956 129.61 219.933 128.633C220.91 127.655 221.459 126.329 221.459 124.946V117.695C221.459 116.313 220.91 114.986 219.933 114.009C218.956 113.031 217.632 112.482 216.25 112.482H209.02C207.639 112.482 206.314 111.933 205.337 110.955C204.36 109.977 203.812 108.651 203.812 107.268V100.017C203.812 99.3327 203.946 98.6548 204.208 98.0223C204.47 97.3898 204.854 96.815 205.337 96.3309C205.821 95.8468 206.395 95.4628 207.027 95.2008C207.659 94.9388 208.336 94.8039 209.02 94.8039H225.125C226.506 94.8039 227.831 94.2547 228.808 93.277C229.785 92.2993 230.333 90.9732 230.333 89.5905Z" fill="#DCDCDC"/>
<path d="M136.771 78.2797C147.145 78.2797 155.555 69.8618 155.555 59.4777C155.555 49.0937 147.145 40.6758 136.771 40.6758C126.397 40.6758 117.987 49.0937 117.987 59.4777C117.987 69.8618 126.397 78.2797 136.771 78.2797Z" fill="#1C1C1C"/>
<path d="M130.121 55.5635C130.121 55.5402 130.121 55.5169 130.121 55.4937C130.121 54.1812 130.508 52.898 131.235 51.8054C131.961 50.7128 132.994 49.8596 134.204 49.3529C135.413 48.8463 136.746 48.7088 138.033 48.9579C139.32 49.2069 140.505 49.8313 141.439 50.7526C142.373 51.6739 143.014 52.851 143.281 54.1359C143.549 55.4207 143.431 56.7561 142.942 57.9741C142.454 59.192 141.616 60.2382 140.536 60.9812C139.455 61.7241 138.179 62.1307 136.867 62.1497V68.1943" stroke="#555555" stroke-width="1.6" stroke-linecap="round" stroke-linejoin="round"/>
<path d="M168.367 46.8213H181.288" stroke="#666666" stroke-width="1.2" stroke-miterlimit="10" stroke-linecap="round"/>
<path d="M168.367 50.5488H181.288" stroke="#666666" stroke-width="1.2" stroke-miterlimit="10" stroke-linecap="round"/>
<path d="M168.367 54.2764H181.288" stroke="#666666" stroke-width="1.2" stroke-miterlimit="10" stroke-linecap="round"/>
<path d="M48.1612 117.619H61.0824" stroke="#666666" stroke-width="1.2" stroke-miterlimit="10" stroke-linecap="round"/>
<path d="M48.1612 121.347H61.0824" stroke="#666666" stroke-width="1.2" stroke-miterlimit="10" stroke-linecap="round"/>
<path d="M48.1612 125.075H61.0824" stroke="#666666" stroke-width="1.2" stroke-miterlimit="10" stroke-linecap="round"/>
<path d="M193.156 144.203H206.077" stroke="#666666" stroke-width="1.2" stroke-miterlimit="10" stroke-linecap="round"/>
<path d="M193.156 147.931H206.077" stroke="#666666" stroke-width="1.2" stroke-miterlimit="10" stroke-linecap="round"/>
<path d="M193.156 151.658H206.077" stroke="#666666" stroke-width="1.2" stroke-miterlimit="10" stroke-linecap="round"/>
<path d="M208.731 125.844C211.781 125.844 214.254 123.369 214.254 120.316C214.254 117.263 211.781 114.788 208.731 114.788C205.681 114.788 203.208 117.263 203.208 120.316C203.208 123.369 205.681 125.844 208.731 125.844Z" fill="#DCDCDC"/>
<path d="M194.156 127.172C195.738 127.172 197.02 125.889 197.02 124.306C197.02 122.723 195.738 121.439 194.156 121.439C192.575 121.439 191.293 122.723 191.293 124.306C191.293 125.889 192.575 127.172 194.156 127.172Z" fill="#DCDCDC"/>
<path d="M201.428 110.884C203.688 110.884 205.519 109.05 205.519 106.789C205.519 104.527 203.688 102.693 201.428 102.693C199.169 102.693 197.337 104.527 197.337 106.789C197.337 109.05 199.169 110.884 201.428 110.884Z" fill="#DCDCDC"/>
<path d="M83.0572 162.6C86.6864 162.6 89.6284 159.655 89.6284 156.022C89.6284 152.389 86.6864 149.444 83.0572 149.444C79.4281 149.444 76.486 152.389 76.486 156.022C76.486 159.655 79.4281 162.6 83.0572 162.6Z" fill="#DCDCDC"/>
<path d="M70.5004 154.763C72.3907 154.763 73.9232 153.229 73.9232 151.337C73.9232 149.445 72.3907 147.911 70.5004 147.911C68.61 147.911 67.0776 149.445 67.0776 151.337C67.0776 153.229 68.61 154.763 70.5004 154.763Z" fill="#DCDCDC"/>
<path d="M73.6444 141.667C74.7349 141.667 75.6188 140.782 75.6188 139.69C75.6188 138.599 74.7349 137.714 73.6444 137.714C72.554 137.714 71.67 138.599 71.67 139.69C71.67 140.782 72.554 141.667 73.6444 141.667Z" fill="#DCDCDC"/>
<path d="M84.5741 145.826C87.1882 145.826 89.3073 143.705 89.3073 141.088C89.3073 138.472 87.1882 136.351 84.5741 136.351C81.96 136.351 79.8409 138.472 79.8409 141.088C79.8409 143.705 81.96 145.826 84.5741 145.826Z" fill="#DCDCDC"/>
<path d="M87.8692 63.8574C91.4984 63.8574 94.4404 60.9125 94.4404 57.2798C94.4404 53.6471 91.4984 50.7021 87.8692 50.7021C84.2401 50.7021 81.298 53.6471 81.298 57.2798C81.298 60.9125 84.2401 63.8574 87.8692 63.8574Z" fill="#DCDCDC"/>
<path d="M88.136 47.2947C90.0264 47.2947 91.5588 45.7607 91.5588 43.8685C91.5588 41.9763 90.0264 40.4424 88.136 40.4424C86.2456 40.4424 84.7132 41.9763 84.7132 43.8685C84.7132 45.7607 86.2456 47.2947 88.136 47.2947Z" fill="#DCDCDC"/>
<path d="M110.934 48.8359C112.57 48.8359 113.896 47.5083 113.896 45.8706C113.896 44.2329 112.57 42.9053 110.934 42.9053C109.298 42.9053 107.972 44.2329 107.972 45.8706C107.972 47.5083 109.298 48.8359 110.934 48.8359Z" fill="#DCDCDC"/>
<path d="M100.156 44.9644C101.247 44.9644 102.131 44.0795 102.131 42.988C102.131 41.8965 101.247 41.0117 100.156 41.0117C99.066 41.0117 98.182 41.8965 98.182 42.988C98.182 44.0795 99.066 44.9644 100.156 44.9644Z" fill="#DCDCDC"/>
<path d="M102.451 58.5137C105.065 58.5137 107.184 56.3925 107.184 53.7759C107.184 51.1593 105.065 49.0381 102.451 49.0381C99.8368 49.0381 97.7177 51.1593 97.7177 53.7759C97.7177 56.3925 99.8368 58.5137 102.451 58.5137Z" fill="#DCDCDC"/>
<path d="M192.843 93.3878H81.5487L77.9197 84.1787H192.843C192.986 84.1787 193.128 84.2069 193.26 84.2617C193.392 84.3164 193.512 84.3967 193.613 84.4979C193.714 84.5991 193.794 84.7192 193.849 84.8514C193.904 84.9837 193.932 85.1254 193.932 85.2685V92.298C193.932 92.4412 193.904 92.5829 193.849 92.7151C193.794 92.8473 193.714 92.9674 193.613 93.0686C193.512 93.1698 193.392 93.2501 193.26 93.3049C193.128 93.3596 192.986 93.3878 192.843 93.3878Z" fill="#666666"/>
<path d="M176.629 141.773H100.951C100.582 141.773 100.221 141.661 99.9175 141.45C99.6139 141.24 99.3818 140.941 99.252 140.595L81.5487 93.3877H188.967L178.399 140.356C178.309 140.758 178.084 141.118 177.763 141.375C177.441 141.633 177.041 141.773 176.629 141.773Z" fill="#555555"/>
<path d="M183.525 117.582C175.783 118.079 168.041 118.339 160.299 118.516C156.428 118.627 152.557 118.651 148.686 118.716L137.073 118.783C129.331 118.79 121.589 118.702 113.847 118.52C106.105 118.344 98.3629 118.082 90.6209 117.582C98.3629 117.082 106.105 116.821 113.847 116.645C121.589 116.471 129.331 116.383 137.073 116.382L148.686 116.448C152.557 116.513 156.428 116.538 160.299 116.649C168.041 116.825 175.783 117.085 183.525 117.582Z" fill="#1C1C1C"/>
<path d="M168.381 93.3877C167.94 97.6101 167.266 101.78 166.522 105.934C165.769 110.086 164.927 114.218 163.999 118.331C163.075 122.445 162.066 126.539 160.973 130.614C160.42 132.651 159.849 134.683 159.239 136.706C158.923 137.715 158.622 138.728 158.294 139.735L158.041 140.499C157.942 140.78 157.78 141.034 157.569 141.243C157.37 141.44 157.13 141.59 156.866 141.682C156.602 141.773 156.321 141.805 156.043 141.773C156.294 141.744 156.535 141.66 156.751 141.528C156.966 141.396 157.151 141.219 157.291 141.009C157.422 140.816 157.509 140.596 157.544 140.364L157.645 139.588C157.78 138.538 157.942 137.494 158.089 136.447C158.404 134.357 158.758 132.276 159.132 130.199C159.885 126.047 160.728 121.915 161.658 117.803C162.585 113.69 163.595 109.596 164.688 105.521C165.795 101.448 166.972 97.3917 168.381 93.3877ZM125.134 141.773C124.846 141.805 124.553 141.768 124.281 141.667C124.008 141.566 123.763 141.402 123.565 141.19C123.37 140.966 123.214 140.711 123.102 140.436L122.744 139.692C122.266 138.701 121.816 137.699 121.35 136.703C120.439 134.703 119.565 132.69 118.709 130.669C117.004 126.625 115.384 122.55 113.847 118.444C112.306 114.339 110.846 110.203 109.468 106.037C108.102 101.866 106.804 97.6691 105.732 93.3877C107.74 97.3175 109.522 101.332 111.235 105.373C112.939 109.416 114.559 113.492 116.093 117.599C117.632 121.706 119.091 125.842 120.47 130.008C121.153 132.093 121.819 134.185 122.447 136.291C122.752 137.347 123.071 138.398 123.363 139.46L123.582 140.256C123.632 140.506 123.722 140.746 123.849 140.967C123.989 141.189 124.177 141.377 124.4 141.517C124.622 141.657 124.873 141.744 125.134 141.773Z" fill="#1C1C1C"/>
<path d="M119.742 178.896C123.883 178.896 127.239 175.536 127.239 171.391C127.239 167.247 123.883 163.887 119.742 163.887C115.601 163.887 112.245 167.247 112.245 171.391C112.245 175.536 115.601 178.896 119.742 178.896Z" fill="#666666"/>
<path d="M119.742 174.854C121.653 174.854 123.202 173.304 123.202 171.391C123.202 169.478 121.653 167.927 119.742 167.927C117.831 167.927 116.282 169.478 116.282 171.391C116.282 173.304 117.831 174.854 119.742 174.854Z" fill="#DCDCDC"/>
<path d="M162.99 178.896C167.13 178.896 170.487 175.536 170.487 171.391C170.487 167.247 167.13 163.887 162.99 163.887C158.849 163.887 155.492 167.247 155.492 171.391C155.492 175.536 158.849 178.896 162.99 178.896Z" fill="#666666"/>
<path d="M162.99 174.854C164.901 174.854 166.45 173.304 166.45 171.391C166.45 169.478 164.901 167.927 162.99 167.927C161.079 167.927 159.529 169.478 159.529 171.391C159.529 173.304 161.079 174.854 162.99 174.854Z" fill="#DCDCDC"/>
<path d="M137.737 93.3877C138.473 97.3903 138.97 101.407 139.396 105.428C139.811 109.45 140.138 113.477 140.374 117.509C140.616 121.541 140.771 125.578 140.839 129.621C140.894 133.664 140.876 137.711 140.617 141.773C139.878 137.771 139.38 133.754 138.955 129.733C138.54 125.711 138.214 121.684 137.979 117.652C137.741 113.62 137.587 109.582 137.518 105.54C137.464 101.497 137.481 97.4494 137.737 93.3877Z" fill="#1C1C1C"/>
<path d="M175.675 160.077H107.854C107.611 160.077 107.374 160.003 107.174 159.865C106.974 159.728 106.82 159.532 106.733 159.305L67.4539 56.8145H46.6484C46.3302 56.8145 46.0249 56.6879 45.7999 56.4626C45.5749 56.2374 45.4484 55.9319 45.4484 55.6133C45.4484 55.2947 45.5749 54.9892 45.7999 54.7639C46.0249 54.5387 46.3302 54.4121 46.6484 54.4121H68.2788C68.5215 54.4121 68.7586 54.4858 68.9586 54.6235C69.1587 54.7612 69.3123 54.9563 69.3992 55.1832L108.678 157.674H175.675C175.993 157.674 176.299 157.801 176.524 158.026C176.749 158.251 176.875 158.557 176.875 158.875C176.875 159.194 176.749 159.499 176.524 159.725C176.299 159.95 175.993 160.077 175.675 160.077Z" fill="#666666"/>
<path d="M57.0832 52.1504H42.8432C42.4014 52.1504 42.0432 52.5089 42.0432 52.9512V58.7008C42.0432 59.143 42.4014 59.5016 42.8432 59.5016H57.0832C57.525 59.5016 57.8832 59.143 57.8832 58.7008V52.9512C57.8832 52.5089 57.525 52.1504 57.0832 52.1504Z" fill="#666666"/>
<path d="M136.771 72.9912C137.367 72.9912 137.851 72.5072 137.851 71.9102C137.851 71.3131 137.367 70.8291 136.771 70.8291C136.174 70.8291 135.691 71.3131 135.691 71.9102C135.691 72.5072 136.174 72.9912 136.771 72.9912Z" fill="#555555"/>
</svg>
