<?xml version="1.0" encoding="utf-8"?>
<!-- Generator: Adobe Illustrator 24.3.0, SVG Export Plug-In . SVG Version: 6.00 Build 0)  -->
<svg version="1.1" id="Layer_1" xmlns="http://www.w3.org/2000/svg" xmlns:xlink="http://www.w3.org/1999/xlink" x="0px" y="0px"
	 viewBox="0 0 1021.4 1298.2" style="enable-background:new 0 0 1021.4 1298.2;" xml:space="preserve">
<style type="text/css">
	.st0{display:none;}
	.st1{display:inline;fill:#2B2B2B;}
	.st2{font-family:'TitilliumWeb-SemiBold';}
	.st3{font-size:69px;}
	.st4{enable-background:new    ;}
	.st5{fill:#2B2B2B;}
</style>
<g id="Layer_1_1_" focusable="false" class="st0">
	<path class="st1" d="M700.4,393.4v6.1h-128v-128h6.1c6.4,0,12.5,2.5,17,7l97.9,97.9C697.9,381,700.4,387.1,700.4,393.4z
		 M564.4,431.5c-13.2,0-24-10.8-24-24v-136h-200c-13.3,0-24,10.7-24,24v464c0,13.3,10.7,24,24,24h336c13.3,0,24-10.7,24-24v-328
		H564.4z M429,447.5c26.5,0,48,21.5,48,48s-21.5,48-48,48s-48-21.5-48-48S402.5,447.5,429,447.5z M637,687.5H381l0.5-48.5l39.5-39.5
		c4.7-4.7,11.8-4.2,16.5,0.5l39.5,39.5L580.5,536c4.7-4.7,12.3-4.7,17,0l39.5,39.5V687.5L637,687.5z"/>
	<text transform="matrix(1 0 0 1 226.6206 1029.7336)" class="st1 st2 st3">No Image Available</text>
</g>
<g id="Layer_1_copy" focusable="false">
	<g class="st4">
		<path class="st5" d="M234.9,1029.7v-47.3h13.4l14.4,40.5h1v-40.5h7.7v47.3h-13.1l-14.7-40.6h-1v40.6H234.9z"/>
		<path class="st5" d="M282.9,999c2.4-3,6.3-4.5,11.8-4.5s9.5,1.5,11.8,4.5c2.4,3,3.6,7.5,3.6,13.5c0,6-1.2,10.5-3.4,13.5
			c-2.3,3-6.3,4.6-11.9,4.6c-5.7,0-9.6-1.5-11.9-4.6c-2.3-3-3.5-7.5-3.5-13.5C279.3,1006.4,280.5,1002,282.9,999z M288.5,1021.4
			c1.1,1.8,3.1,2.8,6.2,2.8c3.1,0,5.2-0.9,6.2-2.8c1.1-1.8,1.6-4.9,1.6-9c0-4.2-0.6-7.2-1.7-8.9c-1.1-1.7-3.2-2.6-6.1-2.6
			c-2.9,0-5,0.9-6.1,2.6c-1.1,1.7-1.7,4.7-1.7,8.9C286.9,1016.5,287.4,1019.5,288.5,1021.4z"/>
		<path class="st5" d="M350.9,1015h-9.7v14.7h-7.7v-47.3h17.3c10.7,0,16.1,5.3,16.1,15.9c0,5.4-1.3,9.6-4,12.4
			C360.3,1013.6,356.3,1015,350.9,1015z M341.3,1008.4h9.6c5.5,0,8.3-3.4,8.3-10.1c0-3.2-0.7-5.6-2-7c-1.3-1.5-3.4-2.2-6.3-2.2h-9.6
			V1008.4z"/>
		<path class="st5" d="M373.5,1029.7v-34.5h7.5v4.1c3.9-2.5,7.8-4.2,11.7-4.9v7.5c-4,0.8-7.3,1.8-10.1,3l-1.5,0.6v24.1H373.5z"/>
		<path class="st5" d="M400,999c2.4-3,6.3-4.5,11.8-4.5s9.5,1.5,11.8,4.5c2.4,3,3.6,7.5,3.6,13.5c0,6-1.2,10.5-3.4,13.5
			c-2.3,3-6.3,4.6-11.9,4.6c-5.7,0-9.6-1.5-11.9-4.6c-2.3-3-3.5-7.5-3.5-13.5C396.5,1006.4,397.7,1002,400,999z M405.6,1021.4
			c1.1,1.8,3.1,2.8,6.2,2.8c3.1,0,5.2-0.9,6.2-2.8c1.1-1.8,1.6-4.9,1.6-9c0-4.2-0.6-7.2-1.7-8.9c-1.1-1.7-3.2-2.6-6.1-2.6
			c-2.9,0-5,0.9-6.1,2.6c-1.1,1.7-1.7,4.7-1.7,8.9C404.1,1016.5,404.6,1019.5,405.6,1021.4z"/>
		<path class="st5" d="M462.8,980.9v48.9h-7.5v-1.8c-3.4,1.7-6.4,2.6-9.2,2.6c-4.5,0-7.8-1.4-9.9-4.1c-2.1-2.7-3.1-7.3-3.1-13.7
			s1.2-11,3.5-13.9c2.3-2.9,5.9-4.3,10.9-4.3c1.7,0,4.3,0.3,7.9,0.9v-14.5H462.8z M454.2,1022.6l1.2-0.5v-20.4
			c-2.8-0.5-5.3-0.7-7.7-0.7c-4.6,0-7,3.9-7,11.6c0,4.2,0.5,7.2,1.6,8.8c1.1,1.6,2.8,2.5,5.1,2.5
			C449.8,1023.8,452,1023.4,454.2,1022.6z"/>
		<path class="st5" d="M492.9,995.2h7.5v34.5h-7.5v-2.1c-3.4,1.9-6.5,2.9-9.3,2.9c-4.7,0-7.9-1.3-9.5-3.8c-1.6-2.6-2.4-7-2.4-13.4
			v-18h7.5v18.1c0,4.1,0.3,6.9,1,8.3c0.7,1.4,2.3,2.1,4.8,2.1c2.5,0,4.8-0.5,6.8-1.4l1-0.4V995.2z"/>
		<path class="st5" d="M522.3,994.5c2.4,0,5.3,0.3,8.6,1l1.7,0.3l-0.3,5.9c-3.6-0.4-6.3-0.6-8.1-0.6c-3.5,0-5.8,0.8-7,2.3
			c-1.2,1.6-1.8,4.5-1.8,8.8c0,4.3,0.6,7.3,1.7,9c1.1,1.7,3.5,2.5,7.2,2.5l8.1-0.6l0.2,6c-4.6,0.8-8.1,1.2-10.5,1.2
			c-5.2,0-8.9-1.4-11.1-4.2s-3.2-7.5-3.2-13.9s1.1-11,3.4-13.8C513.5,995.8,517.2,994.5,522.3,994.5z"/>
		<path class="st5" d="M558.5,1001.7H549v15.2c0,2.8,0.2,4.7,0.6,5.6c0.4,0.9,1.5,1.4,3.2,1.4l5.7-0.2l0.3,6c-3.1,0.6-5.4,0.9-7,0.9
			c-3.9,0-6.6-0.9-8-2.7s-2.2-5.2-2.2-10.1v-16h-4.4v-6.4h4.4v-10h7.5v10h9.5V1001.7z"/>
		<path class="st5" d="M588.6,1002.3c-5.4-0.7-9.4-1.1-11.8-1.1c-2.4,0-4.1,0.3-5.1,0.9c-0.9,0.6-1.4,1.5-1.4,2.7s0.5,2.1,1.6,2.6
			c1,0.5,3.5,1.1,7.3,1.8c3.8,0.7,6.6,1.7,8.2,3.1c1.6,1.4,2.4,4,2.4,7.6s-1.2,6.3-3.5,8c-2.3,1.7-5.7,2.6-10.2,2.6
			c-2.8,0-6.3-0.4-10.6-1.2l-2.1-0.3l0.3-6.3c5.5,0.7,9.5,1.1,11.9,1.1c2.4,0,4.2-0.3,5.2-0.9c1-0.6,1.6-1.6,1.6-3s-0.5-2.3-1.5-2.9
			c-1-0.5-3.4-1.1-7.1-1.7s-6.5-1.6-8.2-2.9c-1.7-1.3-2.6-3.8-2.6-7.3c0-3.5,1.2-6.2,3.6-7.9c2.4-1.7,5.5-2.6,9.3-2.6
			c2.9,0,6.6,0.4,10.8,1.1l2.1,0.4L588.6,1002.3z"/>
		<path class="st5" d="M613.1,1029.7v-47.3h29.3v6.7h-21.7v15.9h18v6.7h-18v17.9H613.1z"/>
		<path class="st5" d="M649.4,999c2.4-3,6.3-4.5,11.8-4.5c5.5,0,9.5,1.5,11.8,4.5c2.4,3,3.6,7.5,3.6,13.5c0,6-1.2,10.5-3.5,13.5
			c-2.3,3-6.3,4.6-11.9,4.6s-9.6-1.5-11.9-4.6c-2.3-3-3.4-7.5-3.4-13.5C645.8,1006.4,647,1002,649.4,999z M655,1021.4
			c1.1,1.8,3.1,2.8,6.2,2.8c3.1,0,5.2-0.9,6.2-2.8c1.1-1.8,1.6-4.9,1.6-9c0-4.2-0.6-7.2-1.7-8.9c-1.1-1.7-3.2-2.6-6.1-2.6
			c-2.9,0-5,0.9-6.1,2.6c-1.1,1.7-1.7,4.7-1.7,8.9C653.4,1016.5,653.9,1019.5,655,1021.4z"/>
		<path class="st5" d="M705,995.2h7.5v34.5H705v-2.1c-3.4,1.9-6.5,2.9-9.3,2.9c-4.7,0-7.9-1.3-9.5-3.8c-1.6-2.6-2.4-7-2.4-13.4v-18
			h7.5v18.1c0,4.1,0.3,6.9,1,8.3c0.7,1.4,2.3,2.1,4.8,2.1c2.5,0,4.8-0.5,6.8-1.4l1-0.4V995.2z"/>
		<path class="st5" d="M729,1029.7h-7.5v-34.5h7.5v2.1c3.4-1.9,6.5-2.9,9.5-2.9c4.6,0,7.7,1.3,9.4,3.9c1.7,2.6,2.5,6.9,2.5,12.9
			v18.5H743v-18.3c0-3.7-0.4-6.4-1.2-7.9c-0.8-1.6-2.4-2.3-4.9-2.3c-2.3,0-4.6,0.5-6.8,1.4l-1,0.4V1029.7z"/>
		<path class="st5" d="M787.3,980.9v48.9h-7.5v-1.8c-3.4,1.7-6.4,2.6-9.2,2.6c-4.5,0-7.8-1.4-9.9-4.1c-2.1-2.7-3.1-7.3-3.1-13.7
			s1.2-11,3.5-13.9c2.3-2.9,5.9-4.3,10.9-4.3c1.7,0,4.3,0.3,7.9,0.9v-14.5H787.3z M778.7,1022.6l1.2-0.5v-20.4
			c-2.8-0.5-5.3-0.7-7.7-0.7c-4.6,0-7,3.9-7,11.6c0,4.2,0.5,7.2,1.6,8.8c1.1,1.6,2.8,2.5,5.1,2.5
			C774.3,1023.8,776.5,1023.4,778.7,1022.6z"/>
	</g>
	<path class="st5" d="M616.4,585.6c-16.9,0-32.8-9-41.4-23.4l-64.3-106.6l-64.2,106.6c-8.7,14.5-24.6,23.5-41.5,23.5
		c-4.5,0-9-0.6-13.3-1.9l-137-39.2v178c0,14.7,10,27.5,24.2,31l216.2,54.1c10.2,2.5,20.9,2.5,31,0l216.4-54.1
		c14.2-3.6,24.2-16.4,24.2-31v-178l-137,39.1C625.4,585,620.9,585.6,616.4,585.6z M829,473.4l-51.5-102.8c-3.1-6.2-9.8-9.8-16.7-8.9
		l-250.1,31.9l91.7,152.1c3.8,6.3,11.4,9.3,18.5,7.3l197.9-56.5C828.7,493.6,833.5,482.6,829,473.4L829,473.4z M243.9,370.6
		l-51.5,102.8c-4.6,9.2,0.3,20.2,10.1,23l197.9,56.5c7.1,2,14.7-1,18.5-7.3l91.8-152l-250.2-31.9C253.6,360.9,247,364.4,243.9,370.6
		z"/>
</g>
</svg>
