<svg width="16" height="17" viewBox="0 0 16 17" fill="none" xmlns="http://www.w3.org/2000/svg">
<path d="M13.3334 10.5001V12.5001H15.3334V13.8334H13.3334V15.8334H12.0001V13.8334H10.0001V12.5001H12.0001V10.5001H13.3334ZM15.3334 7.16673L15.3067 7.36006L14.6667 9.70006C14.0583 9.34995 13.3685 9.16598 12.6666 9.1666C11.9646 9.16722 11.2751 9.3524 10.6673 9.70358C10.0595 10.0548 9.5547 10.5596 9.20357 11.1674C8.85244 11.7753 8.66731 12.4648 8.66675 13.1667C8.66675 13.6334 8.75342 14.0801 8.90008 14.5001H3.66675C3.14675 14.5001 2.69341 14.2001 2.47341 13.7667L0.733415 7.46006L0.666748 7.16673C0.666748 6.80006 0.966748 6.50006 1.33341 6.50006H4.38675L7.45341 2.12006C7.51488 2.03064 7.5973 1.95763 7.69348 1.90741C7.78966 1.85718 7.89668 1.83126 8.00518 1.83192C8.11368 1.83258 8.22038 1.85979 8.31594 1.91118C8.41151 1.96257 8.49304 2.03657 8.55341 2.12673L11.6134 6.50006H14.6667C15.0334 6.50006 15.3334 6.80006 15.3334 7.16673ZM9.33342 10.5001C9.33342 9.76673 8.74008 9.16673 8.00008 9.16673C7.26008 9.16673 6.66675 9.76673 6.66675 10.5001C6.66675 11.2334 7.26675 11.8334 8.00008 11.8334C8.73341 11.8334 9.33342 11.2401 9.33342 10.5001ZM10.0001 6.50006L8.00008 3.66006L6.00008 6.50006H10.0001Z" fill="#555555"/>
</svg>
