<svg width="25" height="25" viewBox="0 0 25 25" fill="none" xmlns="http://www.w3.org/2000/svg">
<path d="M18.8281 17.117L23.1111 21.399L21.6961 22.814L17.4141 18.531C15.8209 19.8082 13.8391 20.5029 11.7971 20.5C6.82912 20.5 2.79712 16.468 2.79712 11.5C2.79712 6.532 6.82912 2.5 11.7971 2.5C16.7651 2.5 20.7971 6.532 20.7971 11.5C20.8 13.542 20.1053 15.5237 18.8281 17.117ZM16.8221 16.375C18.0912 15.0699 18.8 13.3204 18.7971 11.5C18.7971 7.632 15.6641 4.5 11.7971 4.5C7.92912 4.5 4.79712 7.632 4.79712 11.5C4.79712 15.367 7.92912 18.5 11.7971 18.5C13.6175 18.5029 15.367 17.7941 16.6721 16.525L16.8221 16.375Z" fill="#666666"/>
</svg>
