<svg width="30" height="34" viewBox="0 0 30 34" fill="none" xmlns="http://www.w3.org/2000/svg">
<path d="M15.0001 0.333984C15.4421 0.333984 15.8661 0.509579 16.1786 0.82214C16.4912 1.1347 16.6668 1.55862 16.6668 2.00065V7.00065C16.6668 7.44268 16.4912 7.8666 16.1786 8.17916C15.8661 8.49172 15.4421 8.66732 15.0001 8.66732C14.5581 8.66732 14.1342 8.49172 13.8216 8.17916C13.509 7.8666 13.3334 7.44268 13.3334 7.00065V2.00065C13.3334 1.55862 13.509 1.1347 13.8216 0.82214C14.1342 0.509579 14.5581 0.333984 15.0001 0.333984V0.333984ZM15.0001 25.334C15.4421 25.334 15.8661 25.5096 16.1786 25.8221C16.4912 26.1347 16.6668 26.5586 16.6668 27.0007V32.0007C16.6668 32.4427 16.4912 32.8666 16.1786 33.1792C15.8661 33.4917 15.4421 33.6673 15.0001 33.6673C14.5581 33.6673 14.1342 33.4917 13.8216 33.1792C13.509 32.8666 13.3334 32.4427 13.3334 32.0007V27.0007C13.3334 26.5586 13.509 26.1347 13.8216 25.8221C14.1342 25.5096 14.5581 25.334 15.0001 25.334V25.334ZM29.4334 8.66732C29.6544 9.05012 29.7143 9.50503 29.5999 9.93198C29.4855 10.3589 29.2062 10.723 28.8234 10.944L24.4934 13.444C24.3038 13.5551 24.0941 13.6277 23.8763 13.6575C23.6585 13.6873 23.437 13.6737 23.2245 13.6175C23.012 13.5613 22.8127 13.4636 22.6381 13.3301C22.4635 13.1966 22.3171 13.0299 22.2072 12.8395C22.0973 12.6492 22.0261 12.439 21.9978 12.221C21.9694 12.003 21.9845 11.7816 22.0421 11.5695C22.0997 11.3574 22.1987 11.1587 22.3333 10.985C22.468 10.8113 22.6357 10.666 22.8268 10.5573L27.1568 8.05732C27.5396 7.83631 27.9945 7.77642 28.4214 7.89082C28.8484 8.00522 29.2124 8.28453 29.4334 8.66732V8.66732ZM7.78344 21.1673C8.00444 21.5501 8.06433 22.005 7.94994 22.432C7.83554 22.8589 7.55623 23.223 7.17344 23.444L2.84344 25.944C2.65382 26.0551 2.44409 26.1277 2.22631 26.1575C2.00854 26.1873 1.78702 26.1737 1.57453 26.1175C1.36203 26.0613 1.16274 25.9636 0.988138 25.8301C0.813535 25.6966 0.667066 25.5299 0.557164 25.3395C0.447261 25.1492 0.376096 24.939 0.347765 24.721C0.319434 24.503 0.334497 24.2816 0.392087 24.0695C0.449676 23.8574 0.548655 23.6587 0.683325 23.485C0.817994 23.3113 0.985694 23.166 1.17677 23.0573L5.50677 20.5573C5.88957 20.3363 6.34448 20.2764 6.77143 20.3908C7.19839 20.5052 7.56242 20.7845 7.78344 21.1673ZM29.4334 25.334C29.2124 25.7168 28.8484 25.9961 28.4214 26.1105C27.9945 26.2249 27.5396 26.165 27.1568 25.944L22.8268 23.444C22.4471 23.2214 22.1709 22.8577 22.0584 22.4322C21.9459 22.0067 22.0063 21.554 22.2263 21.1728C22.4464 20.7917 22.8083 20.513 23.233 20.3977C23.6577 20.2824 24.1108 20.3398 24.4934 20.5573L28.8234 23.0573C29.2062 23.2783 29.4855 23.6424 29.5999 24.0693C29.7143 24.4963 29.6544 24.9512 29.4334 25.334ZM7.78344 12.834C7.56242 13.2168 7.19839 13.4961 6.77143 13.6105C6.34448 13.7249 5.88957 13.665 5.50677 13.444L1.17677 10.944C0.985694 10.8353 0.817994 10.69 0.683325 10.5163C0.548655 10.3426 0.449676 10.1439 0.392087 9.9318C0.334497 9.71968 0.319434 9.49827 0.347765 9.2803C0.376096 9.06233 0.447261 8.85212 0.557164 8.66177C0.667066 8.47142 0.813535 8.30469 0.988138 8.17117C1.16274 8.03766 1.36203 7.94 1.57453 7.88382C1.78702 7.82764 2.00854 7.81404 2.22631 7.84382C2.44409 7.8736 2.65382 7.94615 2.84344 8.05732L7.17344 10.5573C7.55623 10.7783 7.83554 11.1424 7.94994 11.5693C8.06433 11.9963 8.00444 12.4512 7.78344 12.834Z" fill="#FF8F00"/>
</svg>
