<?xml version="1.0" encoding="utf-8"?>
<!-- Generator: Adobe Illustrator 23.0.1, SVG Export Plug-In . SVG Version: 6.00 Build 0)  -->
<svg version="1.1" id="Layer_1" xmlns="http://www.w3.org/2000/svg" xmlns:xlink="http://www.w3.org/1999/xlink" x="0px" y="0px"
	 viewBox="0 0 1366 768" style="enable-background:new 0 0 1366 768;" xml:space="preserve">
<style type="text/css">
	.st0{display:none;}
	.st1{display:inline;}
	.st2{fill:none;stroke:#800020;stroke-width:10;stroke-miterlimit:10;}
	.st3{fill:#1B292F;}
	.st4{display:none;fill:#1B292F;}
	.st5{font-family:'GoodDogPlain';}
	.st6{font-size:183.3048px;}
</style>
<g class="st0">
	<g class="st1">
		<circle class="st2" cx="369.8" cy="353.7" r="101.2"/>
		<g>
			<g>
				<g>
					<path class="st3" d="M369.8,280.9c-9.1,0-16.5,7.4-16.5,16.5c0,8.8,15,29.3,15.7,30.2l0.6,0.8c0.1,0.1,0.2,0.2,0.3,0.2
						c0.1,0,0.2-0.1,0.3-0.2l0.6-0.8c0.6-0.9,15.7-21.4,15.7-30.2C386.3,288.3,378.9,280.9,369.8,280.9z M369.8,291.5
						c3.3,0,5.9,2.7,5.9,5.9c0,3.3-2.7,5.9-5.9,5.9c-3.3,0-5.9-2.7-5.9-5.9C363.9,294.2,366.5,291.5,369.8,291.5z"/>
				</g>
			</g>
			<g>
				<g>
					<path class="st3" d="M397.1,385.3c-0.2-0.3-0.4-0.5-0.7-0.8c3.5-5.2,5.4-11.5,5.4-17.8c0-3.1-0.5-6-1.3-8.8
						c4.7-2.9,7.7-8,7.7-13.6c0-8.8-7.2-16-16-16c-5.6,0-10.8,3-13.6,7.7c-2.8-0.8-5.8-1.3-8.8-1.3s-6,0.5-8.8,1.3
						c-2.9-4.7-8-7.7-13.6-7.7c-8.8,0-16,7.2-16,16c0,5.6,3,10.8,7.7,13.6c-0.8,2.8-1.3,5.8-1.3,8.8c0,6.3,1.9,12.6,5.4,17.8
						c-0.2,0.3-0.4,0.5-0.7,0.8c-12,5.9-19.7,18.2-19.7,31.7c0,5.3,4.3,9.6,9.6,9.6h74.9c5.3,0,9.6-4.3,9.6-9.6
						C416.8,403.5,409.1,391.2,397.1,385.3z M392.2,334.6c5.3,0,9.6,4.3,9.6,9.6c0,3-1.4,5.8-3.7,7.6c-3-5.8-7.8-10.5-13.5-13.5
						C386.5,336,389.3,334.6,392.2,334.6z M379.4,350.6c1.8,0,3.2,1.4,3.2,3.2c0,1.8-1.4,3.2-3.2,3.2c-1.8,0-3.2-1.4-3.2-3.2
						S377.6,350.6,379.4,350.6z M360.2,350.6c1.8,0,3.2,1.4,3.2,3.2c0,1.8-1.4,3.2-3.2,3.2c-1.8,0-3.2-1.4-3.2-3.2
						S358.4,350.6,360.2,350.6z M369.8,361.3c7.7,0,13.9,6.2,13.9,13.9c0,1.1-0.2,2.3-0.4,3.3c-6.7,0.2-11,4.1-13.5,7.9
						c-2.5-3.7-6.8-7.7-13.5-7.9c-0.3-1.1-0.4-2.2-0.4-3.3C355.9,367.6,362.1,361.3,369.8,361.3z M341.4,351.8
						c-2.3-1.8-3.7-4.6-3.7-7.6c0-5.3,4.3-9.6,9.6-9.6c3,0,5.8,1.4,7.6,3.7C349.1,341.3,344.4,346,341.4,351.8z M351.6,420.2h-4.3
						c-2.9,0-5.3-2.4-5.3-5.3s2.4-5.3,5.3-5.3h4.3c2.9,0,5.3,2.4,5.3,5.3S354.5,420.2,351.6,420.2z M377.5,420.2h-15.4
						c0.8-1.6,1.3-3.4,1.3-5.3c0-6.5-5.3-11.8-11.8-11.8h-4.3c-0.2,0-0.4,0-0.6,0c-1.1-2.1-1.6-4.1-1.6-6.3
						c0-6.8,4.6-11.9,10.7-11.9c8,0,10.7,9.3,10.9,9.7c0.4,1.4,1.7,2.3,3.1,2.3s2.7-1,3.1-2.3c0-0.1,2.8-9.7,10.9-9.7
						c6.1,0,10.7,5.1,10.7,11.9c0,2.1-0.5,4.2-1.6,6.3c-0.2,0-0.4,0-0.6,0H388c-6.5,0-11.8,5.3-11.8,11.8
						C376.2,416.8,376.7,418.6,377.5,420.2z M392.2,420.2H388c-2.9,0-5.3-2.4-5.3-5.3s2.4-5.3,5.3-5.3h4.3c2.9,0,5.3,2.4,5.3,5.3
						C397.6,417.8,395.2,420.2,392.2,420.2z"/>
				</g>
			</g>
		</g>
	</g>
	<g class="st1">
		<path class="st3" d="M522,405.1c-1.5,0-2.7-0.6-3.8-1.9c-1-1.3-1.6-2.5-1.6-3.8c-0.2-3.1-0.4-6.2-0.4-9.5c0-9.2,0.9-22.8,2.8-40.9
			c1.9-18.1,2.8-31.6,2.8-40.7c0-1.5-0.7-2.2-2-2.2c-0.2,0-2.6,0.7-7,2.2c-1.2,0.2-3.5,1.2-6.7,2.8c-3.2,1.6-5.7,2.4-7.4,2.4
			c-2,0-3.6-0.7-4.9-2.1c-1.3-1.4-2-3.1-2-5c0-3.5,1.7-6.2,5.1-7.9c13.1-6.5,27.2-9.8,42.3-10.1H555c4.4,0,8.6,0,12.5,0
			c0.4,0,0.9,0.5,1.5,1.6c0.6,1.1,1,1.7,1.1,1.8c0.4,0.9,0.6,1.6,0.6,2.4c0,4.3-2.8,7.4-8.4,9.3c-0.7,0.1-7.3,0.7-19.6,1.6
			c-4.4,21-7.1,51.2-8.1,90.6c0,2-1.6,4-4.7,6.1C526.6,404,524,405.1,522,405.1z"/>
		<path class="st3" d="M590,381.1c-10-5.7-15-14.8-15-27.3c0-3.2,0.4-6.3,1.3-9.3c1.1-3.9,3.1-8,6-12.3c3.4-4.8,5.3-7.6,5.7-8.4
			c1.8-4.2,5.1-6.2,9.7-6.2c5.5,0,10.3,2.3,14.3,6.8c4,4.5,7.1,10.6,9.2,18.1c0.7,2.8,1.1,5.6,1.1,8.2c0,9.5-4.6,19.1-13.7,28.8
			c-2.2,2.3-5.6,3.5-10.3,3.5C594.9,382.9,592.2,382.3,590,381.1z M595.8,362.9c1,0.2,1.9,0.4,2.8,0.4c5.5,0,8.2-3.4,8.2-10.1
			c0-5.7-2.1-11-6.4-15.8c-0.4-0.2-0.8-0.4-1.3-0.4c-2,0-4.4,1.9-7.2,5.8c-2.9,3.8-4.3,7.6-4.3,11.3
			C587.6,358.8,590.3,361.7,595.8,362.9z"/>
		<path class="st3" d="M629.6,332.5c-0.2-2.2-0.5-4.4-0.7-6.6c0-2.8,0.5-4.8,1.7-6c2-2.9,4.9-4.4,8.8-4.4c3.7,0,6.2,1.5,7.5,4.4
			c1.7,3.7,2.5,8.7,2.4,15.2c-0.1,8.3,0,13.5,0.4,15.6c0.2,0.9,0.6,1.3,1.1,1.3c0.4,0,1.2-0.7,2.6-2.2c2.7-6,5.3-11.9,7.9-17.8
			c3.4-6.6,7.5-11.2,12.1-13.9c1.3-0.7,3.1-1.1,5.1-1.1c5,0,7.5,1.7,7.5,5.1c0,1-0.3,2.1-0.9,3.3c-5,9-10,18.1-15,27.1
			c-5.6,10.9-8.7,20.8-9.3,29.9c-0.9,10-4.3,20.5-10.3,31.5c-7.1,13.3-15.1,20-24,20c-6.1,0-10.2-2.1-12.3-6.2
			c-2.1-4.2-3.1-7.6-3.1-10.4c0-3.2,1.3-5.5,3.8-7c1-0.6,2-0.9,2.9-0.9c2.1,0,4,0.8,5.7,2.5c1.7,1.7,2.8,3.5,3.1,5.6
			c5.6-4.4,9.2-8.5,10.6-12.3c1.1-5.4,2.3-10.8,3.5-16.3c0.2-1.1,0.4-2.2,0.4-3.3c0-2.9-1.2-7-3.7-12.3c-2.4-5.3-3.8-9.1-4-11.5
			C632.4,355.3,631.1,345.6,629.6,332.5z"/>
		<path class="st3" d="M693.9,327.9c-1.6-1.8-3.2-3.7-4.9-5.6c-1.7-1.9-2.5-3.6-2.5-5c0-1.1,0.5-2.2,1.5-3.3
			c6.7-8.4,16.8-14.5,30.2-18.3c12-2.6,23.9-5.1,35.7-7.7c0.7-0.1,1.5-0.2,2.2-0.2c2.3,0,4.6,0.8,6.9,2.5c2.3,1.6,3.4,3.6,3.4,5.8
			c0,3.9-2.8,6.5-8.4,7.9c-3.9,1.5-11.1,2.9-21.4,4.4c-8.9,1.2-15.8,3.1-20.5,5.7c-2.2,1.2-3.3,2.5-3.3,3.8c0,0.4,0.1,0.7,0.2,1.1
			c3.5,5.4,9.8,11.4,18.9,18c11.4,8.2,18.2,13.4,20.5,15.8c6.5,6.4,9.7,13,9.7,20c0,2.3-0.4,4.8-1.1,7.3
			c-2.2,8.3-7.5,14.7-15.8,19.2c-7.6,4-16.4,6-26.6,6c-9.4,0-18-1.8-25.7-5.3c-3.5-1.6-5.3-4.2-5.3-7.7c0-2.7,1-5.4,3-8.2
			c2-2.7,4.4-4.8,7.2-6.1c1.8-0.4,3.5,0.5,4.9,2.7c1.6,2.6,2.9,4,4,4.4c2.7,0,6.7,0.7,12.1,2c2,1,4,1.5,6.2,1.5c2.3,0,5-0.7,8.1-2
			c2.6-1.2,5.1-2.4,7.7-3.5c2.2-1.7,3.3-4,3.3-6.8c0-1.7-0.4-3.5-1.3-5.3c-4.6-6-12.8-13.1-24.5-21.4
			C706.9,341.3,698.7,334,693.9,327.9z"/>
		<path class="st3" d="M774,342c0.1-0.7-0.2-1.8-0.9-3.1c-0.7-1.3-1.1-2.3-1.1-2.9c0-0.6,0.1-1.1,0.4-1.5c1.6-1.3,2.4-4,2.6-8
			c0.1-4,1.2-6.6,3.3-8c2.8-2,5.6-2.9,8.2-2.9c2.6,0,4.6,1,6,2.9c1,0.9,1.5,2.5,1.6,5c0.1,2.5,0.4,3.9,0.9,4.1
			c24.3,2.7,35.8,10.8,34.5,24.4c-1.1,10-6.8,17-17.2,20.9c-9,2.4-18.1,4.9-27.1,7.3c-1.3,6.5-2,11.9-2,16.3c0,5.6,1.5,13.6,4.6,24
			c0.1,0.5,0.9,1.7,2.4,3.7c1.5,2,2.2,3.5,2.2,4.8c0,2.6-2.5,3.8-7.5,3.8c-2.4,0-4.6-0.4-6.6-1.1c-2.9-1.1-5-3.7-6.2-7.7
			c-0.6-1.8-1.3-5.7-2-11.5c-0.7-5.4-1.1-11-1.1-16.9c0-7.5,0.6-16.4,1.8-26.9C771.8,359.9,772.9,351,774,342z M793.4,343
			c-1.6,1.6-3,4.1-4.1,7.6c-1.2,3.5-1.7,6.6-1.7,9.4c0,2.9,0.6,4.7,1.8,5.2c1.2,0.5,2.8,0.8,4.6,0.8c4,0,7.9-1.4,11.6-4.1
			c3.7-2.7,5.9-6.4,6.5-11.1c0.6-4.2-1.5-6.8-6.2-7.9c-2.6-1.1-5.1-1.6-7.5-1.6C796.1,341.3,794.4,341.9,793.4,343z"/>
		<path class="st3" d="M849,381.1c-10-5.7-15-14.8-15-27.3c0-3.2,0.4-6.3,1.3-9.3c1.1-3.9,3.1-8,6-12.3c3.4-4.8,5.3-7.6,5.7-8.4
			c1.8-4.2,5.1-6.2,9.7-6.2c5.5,0,10.3,2.3,14.3,6.8c4,4.5,7.1,10.6,9.2,18.1c0.7,2.8,1.1,5.6,1.1,8.2c0,9.5-4.6,19.1-13.7,28.8
			c-2.2,2.3-5.6,3.5-10.3,3.5C853.9,382.9,851.2,382.3,849,381.1z M854.8,362.9c1,0.2,1.9,0.4,2.8,0.4c5.5,0,8.2-3.4,8.2-10.1
			c0-5.7-2.1-11-6.4-15.8c-0.4-0.2-0.8-0.4-1.3-0.4c-2,0-4.4,1.9-7.2,5.8c-2.9,3.8-4.3,7.6-4.3,11.3
			C846.6,358.8,849.3,361.7,854.8,362.9z"/>
		<path class="st3" d="M911.8,323.2c0.6-4.2,1.5-10.4,2.7-18.7c0.5-4.9,3.7-7.3,9.5-7.3c3.5,0,6.8,1,9.9,2.9
			c1.5,1.5,1.8,3.5,0.9,6.2c-4.8,10.3-7.1,22.7-7.1,37.4c11.6-1.1,17.2-1.6,16.7-1.6c6.4,0,9.5,1.8,9.5,5.3c0,0.7-0.1,1.5-0.4,2.4
			c-1.2,3.9-5.1,6.3-11.7,7.1c-2.3,0.4-8.1,0.5-17.2,0.5c-0.2,1.3-0.4,3.4-0.4,6c0,5.9,0.8,18,2.4,36.5c1.3,17.2,1.9,27.6,1.6,31
			c-0.2,4.2-2.4,6.2-6.4,6.2c-3.8,0-6.4-2-7.7-5.9c-1.1-3.1-2.3-15.4-3.5-37c-1.1-20.6-2.6-32.7-4.6-36.3c-5,3.8-10,5.7-14.8,5.7
			c-2.2,0-4.2-0.6-5.9-1.8c-2.1-1.3-3.1-3.1-3.1-5.1c0-2.6,1.6-4.9,4.8-7c1.6-0.7,5.4-1.8,11.5-3.3c4.8-1,7.9-2.4,9.5-4.4
			c1.6-2,2.6-4.9,2.9-8.8C911.4,329.8,911.6,326.5,911.8,323.2z"/>
	</g>
</g>
<text transform="matrix(1 0 0 1 285.3472 549.1044)" class="st4 st5 st6">ToySpot</text>
<g>
	<g>
		<circle class="st2" cx="413.8" cy="422.7" r="101.2"/>
		<g>
			<g>
				<g>
					<path class="st3" d="M413.8,349.9c-9.1,0-16.5,7.4-16.5,16.5c0,8.8,15,29.3,15.7,30.2l0.6,0.8c0.1,0.1,0.2,0.2,0.3,0.2
						c0.1,0,0.2-0.1,0.3-0.2l0.6-0.8c0.6-0.9,15.7-21.4,15.7-30.2C430.3,357.3,422.9,349.9,413.8,349.9z M413.8,360.5
						c3.3,0,5.9,2.7,5.9,5.9c0,3.3-2.7,5.9-5.9,5.9c-3.3,0-5.9-2.7-5.9-5.9C407.9,363.2,410.5,360.5,413.8,360.5z"/>
				</g>
			</g>
			<g>
				<g>
					<path class="st3" d="M441.1,454.3c-0.2-0.3-0.4-0.5-0.7-0.8c3.5-5.2,5.4-11.5,5.4-17.8c0-3.1-0.5-6-1.3-8.8
						c4.7-2.9,7.7-8,7.7-13.6c0-8.8-7.2-16-16-16c-5.6,0-10.8,3-13.6,7.7c-2.8-0.8-5.8-1.3-8.8-1.3s-6,0.5-8.8,1.3
						c-2.9-4.7-8-7.7-13.6-7.7c-8.8,0-16,7.2-16,16c0,5.6,3,10.8,7.7,13.6c-0.8,2.8-1.3,5.8-1.3,8.8c0,6.3,1.9,12.6,5.4,17.8
						c-0.2,0.3-0.4,0.5-0.7,0.8c-12,5.9-19.7,18.2-19.7,31.7c0,5.3,4.3,9.6,9.6,9.6h74.9c5.3,0,9.6-4.3,9.6-9.6
						C460.8,472.5,453.1,460.2,441.1,454.3z M436.2,403.6c5.3,0,9.6,4.3,9.6,9.6c0,3-1.4,5.8-3.7,7.6c-3-5.8-7.8-10.5-13.5-13.5
						C430.5,405,433.3,403.6,436.2,403.6z M423.4,419.6c1.8,0,3.2,1.4,3.2,3.2c0,1.8-1.4,3.2-3.2,3.2c-1.8,0-3.2-1.4-3.2-3.2
						S421.6,419.6,423.4,419.6z M404.2,419.6c1.8,0,3.2,1.4,3.2,3.2c0,1.8-1.4,3.2-3.2,3.2c-1.8,0-3.2-1.4-3.2-3.2
						S402.4,419.6,404.2,419.6z M413.8,430.3c7.7,0,13.9,6.2,13.9,13.9c0,1.1-0.2,2.3-0.4,3.3c-6.7,0.2-11,4.1-13.5,7.9
						c-2.5-3.7-6.8-7.7-13.5-7.9c-0.3-1.1-0.4-2.2-0.4-3.3C399.9,436.6,406.1,430.3,413.8,430.3z M385.4,420.8
						c-2.3-1.8-3.7-4.6-3.7-7.6c0-5.3,4.3-9.6,9.6-9.6c3,0,5.8,1.4,7.6,3.7C393.1,410.3,388.4,415,385.4,420.8z M395.6,489.2h-4.3
						c-2.9,0-5.3-2.4-5.3-5.3s2.4-5.3,5.3-5.3h4.3c2.9,0,5.3,2.4,5.3,5.3S398.5,489.2,395.6,489.2z M421.5,489.2h-15.4
						c0.8-1.6,1.3-3.4,1.3-5.3c0-6.5-5.3-11.8-11.8-11.8h-4.3c-0.2,0-0.4,0-0.6,0c-1.1-2.1-1.6-4.1-1.6-6.3
						c0-6.8,4.6-11.9,10.7-11.9c8,0,10.7,9.3,10.9,9.7c0.4,1.4,1.7,2.3,3.1,2.3s2.7-1,3.1-2.3c0-0.1,2.8-9.7,10.9-9.7
						c6.1,0,10.7,5.1,10.7,11.9c0,2.1-0.5,4.2-1.6,6.3c-0.2,0-0.4,0-0.6,0H432c-6.5,0-11.8,5.3-11.8,11.8
						C420.2,485.8,420.7,487.6,421.5,489.2z M436.2,489.2H432c-2.9,0-5.3-2.4-5.3-5.3s2.4-5.3,5.3-5.3h4.3c2.9,0,5.3,2.4,5.3,5.3
						C441.6,486.8,439.2,489.2,436.2,489.2z"/>
				</g>
			</g>
		</g>
	</g>
	<g>
		<path class="st3" d="M612.9,359c-0.6-1.1-1.1-1.6-1.5-1.6c-3.9,0-8.1,0-12.5,0h-15.6c-15.2,0.2-29.3,3.6-42.3,10.1
			c-3.4,1.7-5.1,4.3-5.1,7.9c0,2,0.7,3.6,2,5c1.3,1.4,3,2.1,4.9,2.1c1.7,0,4.2-0.8,7.4-2.4c3.2-1.6,5.5-2.5,6.7-2.8
			c4.4-1.5,6.7-2.2,7-2.2c1.3,0,2,0.7,2,2.2c0,9-0.9,22.6-2.8,40.7c-1.9,18.1-2.8,31.7-2.8,40.9c0,3.3,0.1,6.5,0.4,9.5
			c0,1.2,0.5,2.5,1.6,3.8c1,1.3,2.3,1.9,3.8,1.9c2.1,0,4.7-1.1,7.8-3.2c3.1-2.1,4.7-4.2,4.7-6.1c1-39.5,3.7-69.7,8.1-90.6
			c12.3-1,18.9-1.5,19.6-1.6c5.6-1.9,8.4-5.1,8.4-9.3c0-0.7-0.2-1.5-0.6-2.4C613.9,360.7,613.5,360.1,612.9,359z"/>
		<path class="st3" d="M665.1,411.4c-2.1-7.6-5.1-13.6-9.2-18.1c-4-4.5-8.8-6.8-14.3-6.8c-4.6,0-7.9,2.1-9.7,6.2
			c-0.4,0.9-2.3,3.7-5.7,8.4c-2.9,4.3-4.9,8.4-6,12.3c-0.9,3.1-1.3,6.2-1.3,9.3c0,12.5,5,21.6,15,27.3c2.2,1.2,4.9,1.8,8.2,1.8
			c4.6,0,8.1-1.2,10.3-3.5c9.2-9.7,13.7-19.2,13.7-28.8C666.2,417,665.9,414.2,665.1,411.4z M642.6,432.3c-0.9,0-1.8-0.1-2.8-0.4
			c-5.5-1.2-8.2-4.2-8.2-8.8c0-3.7,1.4-7.4,4.3-11.3c2.9-3.8,5.3-5.8,7.2-5.8c0.5,0,0.9,0.1,1.3,0.4c4.3,4.8,6.4,10,6.4,15.8
			C650.8,429,648.1,432.3,642.6,432.3z"/>
		<path class="st3" d="M722.3,385.9c-2.1,0-3.8,0.4-5.1,1.1c-4.6,2.7-8.7,7.3-12.1,13.9c-2.6,5.9-5.2,11.8-7.9,17.8
			c-1.3,1.5-2.2,2.2-2.6,2.2c-0.5,0-0.9-0.4-1.1-1.3c-0.4-2.1-0.5-7.3-0.4-15.6c0.1-6.5-0.7-11.5-2.4-15.2c-1.3-2.9-3.8-4.4-7.5-4.4
			c-3.9,0-6.8,1.5-8.8,4.4c-1.1,1.2-1.7,3.2-1.7,6c0.2,2.2,0.5,4.4,0.7,6.6c1.6,13.1,2.8,22.8,3.7,29.1c0.2,2.4,1.6,6.3,4,11.5
			c2.4,5.3,3.7,9.3,3.7,12.3c0,1.1-0.1,2.2-0.4,3.3c-1.2,5.5-2.4,10.9-3.5,16.3c-1.5,3.8-5,7.9-10.6,12.3c-0.4-2.1-1.4-3.9-3.1-5.6
			c-1.7-1.6-3.6-2.5-5.7-2.5c-1,0-2,0.3-2.9,0.9c-2.6,1.5-3.8,3.8-3.8,7c0,2.8,1,6.3,3.1,10.4c2.1,4.2,6.2,6.2,12.3,6.2
			c8.9,0,16.9-6.7,24-20c6-11,9.4-21.5,10.3-31.5c0.6-9,3.7-19,9.3-29.9c5-9,10-18.1,15-27.1c0.6-1.2,0.9-2.3,0.9-3.3
			C729.8,387.6,727.3,385.9,722.3,385.9z"/>
		<path class="st3" d="M807.1,359.3c-2.3-1.6-4.6-2.5-6.9-2.5c-0.7,0-1.5,0.1-2.2,0.2c-11.9,2.6-23.8,5.1-35.7,7.7
			c-13.4,3.8-23.5,9.9-30.2,18.3c-1,1.1-1.5,2.2-1.5,3.3c0,1.5,0.8,3.1,2.5,5c1.6,1.9,3.3,3.8,4.9,5.6c4.8,6.1,13,13.3,24.7,21.6
			c11.7,8.3,19.8,15.5,24.5,21.4c0.9,1.8,1.3,3.6,1.3,5.3c0,2.8-1.1,5.1-3.3,6.8c-2.6,1.1-5.1,2.3-7.7,3.5c-3.1,1.3-5.7,2-8.1,2
			c-2.2,0-4.3-0.5-6.2-1.5c-5.4-1.3-9.4-2-12.1-2c-1.1-0.4-2.4-1.8-4-4.4c-1.5-2.2-3.1-3.1-4.9-2.7c-2.8,1.3-5.2,3.4-7.2,6.1
			c-2,2.7-3,5.5-3,8.2c0,3.5,1.8,6.1,5.3,7.7c7.7,3.5,16.3,5.3,25.7,5.3c10.1,0,19-2,26.6-6c8.3-4.5,13.6-10.9,15.8-19.2
			c0.7-2.6,1.1-5,1.1-7.3c0-7-3.2-13.6-9.7-20c-2.3-2.3-9.2-7.6-20.5-15.8c-9-6.6-15.3-12.6-18.9-18c-0.1-0.4-0.2-0.7-0.2-1.1
			c0-1.3,1.1-2.6,3.3-3.8c4.8-2.6,11.6-4.5,20.5-5.7c10.4-1.5,17.5-2.9,21.4-4.4c5.6-1.3,8.4-4,8.4-7.9
			C810.5,362.8,809.4,360.9,807.1,359.3z"/>
		<path class="st3" d="M839.1,396.8c-0.5-0.2-0.8-1.6-0.9-4.1c-0.1-2.5-0.7-4.2-1.6-5c-1.5-2-3.5-2.9-6-2.9c-2.7,0-5.4,1-8.2,2.9
			c-2.1,1.3-3.2,4-3.3,8c-0.1,4-1,6.6-2.6,8c-0.2,0.4-0.4,0.9-0.4,1.5c0,0.6,0.4,1.6,1.1,2.9c0.7,1.3,1,2.4,0.9,3.1
			c-1.1,8.9-2.2,17.8-3.3,26.8c-1.2,10.5-1.8,19.5-1.8,26.9c0,5.9,0.4,11.5,1.1,16.9c0.7,5.9,1.4,9.7,2,11.5c1.2,4,3.3,6.6,6.2,7.7
			c2,0.7,4.2,1.1,6.6,1.1c5,0,7.5-1.3,7.5-3.8c0-1.2-0.7-2.8-2.2-4.8c-1.5-2-2.3-3.2-2.4-3.7c-3.1-10.4-4.6-18.4-4.6-24
			c0-4.4,0.7-9.8,2-16.3c9-2.4,18.1-4.9,27.1-7.3c10.4-3.9,16.1-10.9,17.2-20.9C874.9,407.6,863.4,399.4,839.1,396.8z M856.1,419.8
			c-0.6,4.6-2.8,8.3-6.5,11.1c-3.7,2.7-7.6,4.1-11.6,4.1c-1.8,0-3.4-0.3-4.6-0.8c-1.2-0.6-1.8-2.3-1.8-5.2c0-2.8,0.6-6,1.7-9.4
			c1.2-3.5,2.5-6,4.1-7.6c1-1.1,2.6-1.6,4.9-1.6c2.4,0,4.9,0.5,7.5,1.6C854.7,413.1,856.7,415.7,856.1,419.8z"/>
		<path class="st3" d="M915,393.3c-4-4.5-8.8-6.8-14.3-6.8c-4.6,0-7.9,2.1-9.7,6.2c-0.4,0.9-2.3,3.7-5.7,8.4
			c-2.9,4.3-4.9,8.4-6,12.3c-0.9,3.1-1.3,6.2-1.3,9.3c0,12.5,5,21.6,15,27.3c2.2,1.2,4.9,1.8,8.2,1.8c4.6,0,8.1-1.2,10.3-3.5
			c9.2-9.7,13.7-19.2,13.7-28.8c0-2.7-0.4-5.4-1.1-8.2C922.1,403.8,919,397.8,915,393.3z M901.6,432.3c-0.9,0-1.8-0.1-2.8-0.4
			c-5.5-1.2-8.2-4.2-8.2-8.8c0-3.7,1.4-7.4,4.3-11.3c2.9-3.8,5.3-5.8,7.2-5.8c0.5,0,0.9,0.1,1.3,0.4c4.3,4.8,6.4,10,6.4,15.8
			C909.8,429,907.1,432.3,901.6,432.3z"/>
		<path class="st3" d="M988.5,411c0.5,0-5.1,0.5-16.7,1.6c0-14.7,2.4-27.1,7.1-37.4c0.9-2.7,0.5-4.8-0.9-6.2c-3.1-2-6.4-2.9-9.9-2.9
			c-5.9,0-9,2.4-9.5,7.3c-1.2,8.3-2.1,14.5-2.7,18.7c-0.2,3.3-0.5,6.7-0.7,10.1c-0.4,3.9-1.3,6.8-2.9,8.8c-1.6,2-4.8,3.4-9.5,4.4
			c-6.1,1.5-10,2.6-11.5,3.3c-3.2,2.1-4.8,4.4-4.8,7c0,2.1,1,3.8,3.1,5.1c1.7,1.2,3.7,1.8,5.9,1.8c4.9,0,9.8-1.9,14.8-5.7
			c2,3.5,3.5,15.6,4.6,36.3c1.2,21.6,2.4,34,3.5,37c1.3,3.9,3.9,5.9,7.7,5.9c4,0,6.2-2.1,6.4-6.2c0.2-3.4-0.3-13.7-1.6-31
			c-1.6-18.5-2.4-30.6-2.4-36.5c0-2.7,0.1-4.7,0.4-6c9.2,0,14.9-0.2,17.2-0.5c6.6-0.9,10.5-3.2,11.7-7.1c0.2-0.9,0.4-1.6,0.4-2.4
			C998,412.8,994.8,411,988.5,411z"/>
	</g>
</g>
</svg>
