<svg width="32" height="33" viewBox="0 0 32 33" fill="none" xmlns="http://www.w3.org/2000/svg">
<path d="M16 1.83337C16.8755 1.83337 17.7424 2.00581 18.5512 2.34084C19.3601 2.67588 20.095 3.16694 20.714 3.786C21.3331 4.40505 21.8242 5.13998 22.1592 5.94882C22.4942 6.75766 22.6667 7.62456 22.6667 8.50004V11.1667H26.6667C27.0203 11.1667 27.3594 11.3072 27.6095 11.5572C27.8595 11.8073 28 12.1464 28 12.5V28.5C28 28.8537 27.8595 29.1928 27.6095 29.4429C27.3594 29.6929 27.0203 29.8334 26.6667 29.8334H5.33333C4.97971 29.8334 4.64057 29.6929 4.39052 29.4429C4.14048 29.1928 4 28.8537 4 28.5V12.5C4 12.1464 4.14048 11.8073 4.39052 11.5572C4.64057 11.3072 4.97971 11.1667 5.33333 11.1667H9.33333V8.50004C9.33333 6.73193 10.0357 5.03624 11.286 3.786C12.5362 2.53575 14.2319 1.83337 16 1.83337ZM22.6667 15.1667H20V16.5C20.0004 16.8399 20.1305 17.1668 20.3638 17.4139C20.5971 17.661 20.9159 17.8097 21.2552 17.8296C21.5944 17.8495 21.9285 17.7391 22.1891 17.521C22.4497 17.3029 22.6172 16.9935 22.6573 16.656L22.6667 16.5V15.1667ZM12 15.1667H9.33333V16.5C9.33371 16.8399 9.46384 17.1668 9.69713 17.4139C9.93042 17.661 10.2493 17.8097 10.5885 17.8296C10.9278 17.8495 11.2618 17.7391 11.5224 17.521C11.783 17.3029 11.9505 16.9935 11.9907 16.656L12 16.5V15.1667ZM16 4.50004C14.9797 4.49998 13.998 4.88981 13.2557 5.58975C12.5133 6.2897 12.0665 7.24685 12.0067 8.26537L12 8.50004V11.1667H20V8.50004C20.0001 7.47976 19.6102 6.49802 18.9103 5.75569C18.2103 5.01336 17.2532 4.56656 16.2347 4.50671L16 4.50004Z" fill="#333333"/>
</svg>
