<svg width="16" height="16" viewBox="0 0 16 16" fill="none" xmlns="http://www.w3.org/2000/svg">
<path d="M8.57707 2.00005L14.9277 13.0001C14.9862 13.1014 15.0171 13.2164 15.0171 13.3334C15.0171 13.4504 14.9863 13.5654 14.9277 13.6667C14.8692 13.7681 14.7851 13.8522 14.6837 13.9107C14.5824 13.9692 14.4674 14 14.3504 14.0001H1.64907C1.53205 14 1.41709 13.9692 1.31574 13.9107C1.2144 13.8522 1.13024 13.7681 1.07173 13.6667C1.01322 13.5654 0.982421 13.4504 0.982422 13.3334C0.982423 13.2164 1.01323 13.1014 1.07174 13.0001L7.4224 2.00005C7.48092 1.89871 7.56508 1.81456 7.66642 1.75606C7.76776 1.69755 7.88272 1.66675 7.99974 1.66675C8.11676 1.66675 8.23171 1.69755 8.33306 1.75606C8.4344 1.81456 8.51856 1.89871 8.57707 2.00005ZM7.33307 10.6667V12.0001H8.6664V10.6667H7.33307ZM7.33307 6.00005V9.33338H8.6664V6.00005H7.33307Z" fill="#1C1C1C"/>
</svg>
