<svg width="24" height="25" viewBox="0 0 24 25" fill="none" xmlns="http://www.w3.org/2000/svg">
<path d="M20 22.5H18V20.5C18 19.7044 17.6839 18.9413 17.1213 18.3787C16.5587 17.8161 15.7956 17.5 15 17.5H9C8.20435 17.5 7.44129 17.8161 6.87868 18.3787C6.31607 18.9413 6 19.7044 6 20.5V22.5H4V20.5C4 19.1739 4.52678 17.9021 5.46447 16.9645C6.40215 16.0268 7.67392 15.5 9 15.5H15C16.3261 15.5 17.5979 16.0268 18.5355 16.9645C19.4732 17.9021 20 19.1739 20 20.5V22.5ZM12 13.5C11.2121 13.5 10.4319 13.3448 9.7039 13.0433C8.97595 12.7417 8.31451 12.2998 7.75736 11.7426C7.20021 11.1855 6.75825 10.5241 6.45672 9.7961C6.15519 9.06815 6 8.28793 6 7.5C6 6.71207 6.15519 5.93185 6.45672 5.2039C6.75825 4.47595 7.20021 3.81451 7.75736 3.25736C8.31451 2.70021 8.97595 2.25825 9.7039 1.95672C10.4319 1.65519 11.2121 1.5 12 1.5C13.5913 1.5 15.1174 2.13214 16.2426 3.25736C17.3679 4.38258 18 5.9087 18 7.5C18 9.0913 17.3679 10.6174 16.2426 11.7426C15.1174 12.8679 13.5913 13.5 12 13.5V13.5ZM12 11.5C13.0609 11.5 14.0783 11.0786 14.8284 10.3284C15.5786 9.57828 16 8.56087 16 7.5C16 6.43913 15.5786 5.42172 14.8284 4.67157C14.0783 3.92143 13.0609 3.5 12 3.5C10.9391 3.5 9.92172 3.92143 9.17157 4.67157C8.42143 5.42172 8 6.43913 8 7.5C8 8.56087 8.42143 9.57828 9.17157 10.3284C9.92172 11.0786 10.9391 11.5 12 11.5V11.5Z" fill="#333333"/>
</svg>
