<?xml version="1.0" encoding="utf-8"?>
<!-- Generator: Adobe Illustrator 23.0.1, SVG Export Plug-In . SVG Version: 6.00 Build 0)  -->
<svg version="1.1" id="Layer_1" xmlns="http://www.w3.org/2000/svg" xmlns:xlink="http://www.w3.org/1999/xlink" x="0px" y="0px"
	 viewBox="0 0 1366 768" style="enable-background:new 0 0 1366 768;" xml:space="preserve">
<style type="text/css">
	.st0{fill:none;stroke:#800020;stroke-width:10;stroke-miterlimit:10;}
	.st1{fill:#1B292F;}
</style>
<g>
	<g>
		<circle class="st0" cx="425.8" cy="-163.3" r="101.2"/>
		<g>
			<g>
				<g>
					<path class="st1" d="M425.8-236.1c-9.1,0-16.5,7.4-16.5,16.5c0,8.8,15,29.3,15.7,30.2l0.6,0.8c0.1,0.1,0.2,0.2,0.3,0.2
						c0.1,0,0.2-0.1,0.3-0.2l0.6-0.8c0.6-0.9,15.7-21.4,15.7-30.2C442.3-228.7,434.9-236.1,425.8-236.1z M425.8-225.5
						c3.3,0,5.9,2.7,5.9,5.9c0,3.3-2.7,5.9-5.9,5.9c-3.3,0-5.9-2.7-5.9-5.9C419.9-222.8,422.5-225.5,425.8-225.5z"/>
				</g>
			</g>
			<g>
				<g>
					<path class="st1" d="M453.1-131.7c-0.2-0.3-0.4-0.5-0.7-0.8c3.5-5.2,5.4-11.5,5.4-17.8c0-3.1-0.5-6-1.3-8.8
						c4.7-2.9,7.7-8,7.7-13.6c0-8.8-7.2-16-16-16c-5.6,0-10.8,3-13.6,7.7c-2.8-0.8-5.8-1.3-8.8-1.3s-6,0.5-8.8,1.3
						c-2.9-4.7-8-7.7-13.6-7.7c-8.8,0-16,7.2-16,16c0,5.6,3,10.8,7.7,13.6c-0.8,2.8-1.3,5.8-1.3,8.8c0,6.3,1.9,12.6,5.4,17.8
						c-0.2,0.3-0.4,0.5-0.7,0.8c-12,5.9-19.7,18.2-19.7,31.7c0,5.3,4.3,9.6,9.6,9.6h74.9c5.3,0,9.6-4.3,9.6-9.6
						C472.8-113.5,465.1-125.8,453.1-131.7z M448.2-182.4c5.3,0,9.6,4.3,9.6,9.6c0,3-1.4,5.8-3.7,7.6c-3-5.8-7.8-10.5-13.5-13.5
						C442.5-181,445.3-182.4,448.2-182.4z M435.4-166.4c1.8,0,3.2,1.4,3.2,3.2c0,1.8-1.4,3.2-3.2,3.2c-1.8,0-3.2-1.4-3.2-3.2
						C432.2-164.9,433.6-166.4,435.4-166.4z M416.2-166.4c1.8,0,3.2,1.4,3.2,3.2c0,1.8-1.4,3.2-3.2,3.2c-1.8,0-3.2-1.4-3.2-3.2
						C412.9-164.9,414.4-166.4,416.2-166.4z M425.8-155.7c7.7,0,13.9,6.2,13.9,13.9c0,1.1-0.2,2.3-0.4,3.3c-6.7,0.2-11,4.1-13.5,7.9
						c-2.5-3.7-6.8-7.7-13.5-7.9c-0.3-1.1-0.4-2.2-0.4-3.3C411.9-149.4,418.1-155.7,425.8-155.7z M397.4-165.2
						c-2.3-1.8-3.7-4.6-3.7-7.6c0-5.3,4.3-9.6,9.6-9.6c3,0,5.8,1.4,7.6,3.7C405.1-175.7,400.4-171,397.4-165.2z M407.6-96.8h-4.3
						c-2.9,0-5.3-2.4-5.3-5.3s2.4-5.3,5.3-5.3h4.3c2.9,0,5.3,2.4,5.3,5.3C412.9-99.2,410.5-96.8,407.6-96.8z M433.5-96.8h-15.4
						c0.8-1.6,1.3-3.4,1.3-5.3c0-6.5-5.3-11.8-11.8-11.8h-4.3c-0.2,0-0.4,0-0.6,0c-1.1-2.1-1.6-4.1-1.6-6.3
						c0-6.8,4.6-11.9,10.7-11.9c8,0,10.7,9.3,10.9,9.7c0.4,1.4,1.7,2.3,3.1,2.3s2.7-1,3.1-2.3c0-0.1,2.8-9.7,10.9-9.7
						c6.1,0,10.7,5.1,10.7,11.9c0,2.1-0.5,4.2-1.6,6.3c-0.2,0-0.4,0-0.6,0H444c-6.5,0-11.8,5.3-11.8,11.8
						C432.2-100.2,432.7-98.4,433.5-96.8z M448.2-96.8H444c-2.9,0-5.3-2.4-5.3-5.3s2.4-5.3,5.3-5.3h4.3c2.9,0,5.3,2.4,5.3,5.3
						C453.6-99.2,451.2-96.8,448.2-96.8z"/>
				</g>
			</g>
		</g>
	</g>
	<g>
		<path class="st1" d="M624.9-227c-0.6-1.1-1.1-1.6-1.5-1.6c-3.9,0-8.1,0-12.5,0h-15.6c-15.2,0.2-29.3,3.6-42.3,10.1
			c-3.4,1.7-5.1,4.3-5.1,7.9c0,2,0.7,3.6,2,5c1.3,1.4,3,2.1,4.9,2.1c1.7,0,4.2-0.8,7.4-2.4c3.2-1.6,5.5-2.5,6.7-2.8
			c4.4-1.5,6.7-2.2,7-2.2c1.3,0,2,0.7,2,2.2c0,9-0.9,22.6-2.8,40.7c-1.9,18.1-2.8,31.7-2.8,40.9c0,3.3,0.1,6.5,0.4,9.5
			c0,1.2,0.5,2.5,1.6,3.8c1,1.3,2.3,1.9,3.8,1.9c2.1,0,4.7-1.1,7.8-3.2c3.1-2.1,4.7-4.2,4.7-6.1c1-39.5,3.7-69.7,8.1-90.6
			c12.3-1,18.9-1.5,19.6-1.6c5.6-1.9,8.4-5.1,8.4-9.3c0-0.7-0.2-1.5-0.6-2.4C625.9-225.3,625.5-225.9,624.9-227z"/>
		<path class="st1" d="M677.1-174.6c-2.1-7.6-5.1-13.6-9.2-18.1c-4-4.5-8.8-6.8-14.3-6.8c-4.6,0-7.9,2.1-9.7,6.2
			c-0.4,0.9-2.3,3.7-5.7,8.4c-2.9,4.3-4.9,8.4-6,12.3c-0.9,3.1-1.3,6.2-1.3,9.3c0,12.5,5,21.6,15,27.3c2.2,1.2,4.9,1.8,8.2,1.8
			c4.6,0,8.1-1.2,10.3-3.5c9.2-9.7,13.7-19.2,13.7-28.8C678.2-169,677.9-171.8,677.1-174.6z M654.6-153.7c-0.9,0-1.8-0.1-2.8-0.4
			c-5.5-1.2-8.2-4.2-8.2-8.8c0-3.7,1.4-7.4,4.3-11.3c2.9-3.8,5.3-5.8,7.2-5.8c0.5,0,0.9,0.1,1.3,0.4c4.3,4.8,6.4,10,6.4,15.8
			C662.8-157,660.1-153.7,654.6-153.7z"/>
		<path class="st1" d="M734.3-200.1c-2.1,0-3.8,0.4-5.1,1.1c-4.6,2.7-8.7,7.3-12.1,13.9c-2.6,5.9-5.2,11.8-7.9,17.8
			c-1.3,1.5-2.2,2.2-2.6,2.2c-0.5,0-0.9-0.4-1.1-1.3c-0.4-2.1-0.5-7.3-0.4-15.6c0.1-6.5-0.7-11.5-2.4-15.2c-1.3-2.9-3.8-4.4-7.5-4.4
			c-3.9,0-6.8,1.5-8.8,4.4c-1.1,1.2-1.7,3.2-1.7,6c0.2,2.2,0.5,4.4,0.7,6.6c1.6,13.1,2.8,22.8,3.7,29.1c0.2,2.4,1.6,6.3,4,11.5
			c2.4,5.3,3.7,9.3,3.7,12.3c0,1.1-0.1,2.2-0.4,3.3c-1.2,5.5-2.4,10.9-3.5,16.3c-1.5,3.8-5,7.9-10.6,12.3c-0.4-2.1-1.4-3.9-3.1-5.6
			c-1.7-1.6-3.6-2.5-5.7-2.5c-1,0-2,0.3-2.9,0.9c-2.6,1.5-3.8,3.8-3.8,7c0,2.8,1,6.3,3.1,10.4c2.1,4.2,6.2,6.2,12.3,6.2
			c8.9,0,16.9-6.7,24-20c6-11,9.4-21.5,10.3-31.5c0.6-9,3.7-19,9.3-29.9c5-9,10-18.1,15-27.1c0.6-1.2,0.9-2.3,0.9-3.3
			C741.8-198.4,739.3-200.1,734.3-200.1z"/>
		<path class="st1" d="M819.1-226.7c-2.3-1.6-4.6-2.5-6.9-2.5c-0.7,0-1.5,0.1-2.2,0.2c-11.9,2.6-23.8,5.1-35.7,7.7
			c-13.4,3.8-23.5,9.9-30.2,18.3c-1,1.1-1.5,2.2-1.5,3.3c0,1.5,0.8,3.1,2.5,5c1.6,1.9,3.3,3.8,4.9,5.6c4.8,6.1,13,13.3,24.7,21.6
			c11.7,8.3,19.8,15.5,24.5,21.4c0.9,1.8,1.3,3.6,1.3,5.3c0,2.8-1.1,5.1-3.3,6.8c-2.6,1.1-5.1,2.3-7.7,3.5c-3.1,1.3-5.7,2-8.1,2
			c-2.2,0-4.3-0.5-6.2-1.5c-5.4-1.3-9.4-2-12.1-2c-1.1-0.4-2.4-1.8-4-4.4c-1.5-2.2-3.1-3.1-4.9-2.7c-2.8,1.3-5.2,3.4-7.2,6.1
			c-2,2.7-3,5.5-3,8.2c0,3.5,1.8,6.1,5.3,7.7c7.7,3.5,16.3,5.3,25.7,5.3c10.1,0,19-2,26.6-6c8.3-4.5,13.6-10.9,15.8-19.2
			c0.7-2.6,1.1-5,1.1-7.3c0-7-3.2-13.6-9.7-20c-2.3-2.3-9.2-7.6-20.5-15.8c-9-6.6-15.3-12.6-18.9-18c-0.1-0.4-0.2-0.7-0.2-1.1
			c0-1.3,1.1-2.6,3.3-3.8c4.8-2.6,11.6-4.5,20.5-5.7c10.4-1.5,17.5-2.9,21.4-4.4c5.6-1.3,8.4-4,8.4-7.9
			C822.5-223.2,821.4-225.1,819.1-226.7z"/>
		<path class="st1" d="M851.1-189.3c-0.5-0.2-0.8-1.6-0.9-4.1c-0.1-2.5-0.7-4.2-1.6-5c-1.5-2-3.5-2.9-6-2.9c-2.7,0-5.4,1-8.2,2.9
			c-2.1,1.3-3.2,4-3.3,8c-0.1,4-1,6.6-2.6,8c-0.2,0.4-0.4,0.9-0.4,1.5c0,0.6,0.4,1.6,1.1,2.9c0.7,1.3,1,2.4,0.9,3.1
			c-1.1,8.9-2.2,17.8-3.3,26.8c-1.2,10.5-1.8,19.5-1.8,26.9c0,5.9,0.4,11.5,1.1,16.9c0.7,5.9,1.4,9.7,2,11.5c1.2,4,3.3,6.6,6.2,7.7
			c2,0.7,4.2,1.1,6.6,1.1c5,0,7.5-1.3,7.5-3.8c0-1.2-0.7-2.8-2.2-4.8c-1.5-2-2.3-3.2-2.4-3.7c-3.1-10.4-4.6-18.4-4.6-24
			c0-4.4,0.7-9.8,2-16.3c9-2.4,18.1-4.9,27.1-7.3c10.4-3.9,16.1-10.9,17.2-20.9C886.9-178.4,875.4-186.6,851.1-189.3z M868.1-166.2
			c-0.6,4.6-2.8,8.3-6.5,11.1c-3.7,2.7-7.6,4.1-11.6,4.1c-1.8,0-3.4-0.3-4.6-0.8c-1.2-0.6-1.8-2.3-1.8-5.2c0-2.8,0.6-6,1.7-9.4
			c1.2-3.5,2.5-6,4.1-7.6c1-1.1,2.6-1.6,4.9-1.6c2.4,0,4.9,0.5,7.5,1.6C866.7-172.9,868.7-170.3,868.1-166.2z"/>
		<path class="st1" d="M927-192.7c-4-4.5-8.8-6.8-14.3-6.8c-4.6,0-7.9,2.1-9.7,6.2c-0.4,0.9-2.3,3.7-5.7,8.4
			c-2.9,4.3-4.9,8.4-6,12.3c-0.9,3.1-1.3,6.2-1.3,9.3c0,12.5,5,21.6,15,27.3c2.2,1.2,4.9,1.8,8.2,1.8c4.6,0,8.1-1.2,10.3-3.5
			c9.2-9.7,13.7-19.2,13.7-28.8c0-2.7-0.4-5.4-1.1-8.2C934.1-182.2,931-188.2,927-192.7z M913.6-153.7c-0.9,0-1.8-0.1-2.8-0.4
			c-5.5-1.2-8.2-4.2-8.2-8.8c0-3.7,1.4-7.4,4.3-11.3c2.9-3.8,5.3-5.8,7.2-5.8c0.5,0,0.9,0.1,1.3,0.4c4.3,4.8,6.4,10,6.4,15.8
			C921.8-157,919.1-153.7,913.6-153.7z"/>
		<path class="st1" d="M1000.5-175c0.5,0-5.1,0.5-16.7,1.6c0-14.7,2.4-27.1,7.1-37.4c0.9-2.7,0.5-4.8-0.9-6.2
			c-3.1-2-6.4-2.9-9.9-2.9c-5.9,0-9,2.4-9.5,7.3c-1.2,8.3-2.1,14.5-2.7,18.7c-0.2,3.3-0.5,6.7-0.7,10.1c-0.4,3.9-1.3,6.8-2.9,8.8
			c-1.6,2-4.8,3.4-9.5,4.4c-6.1,1.5-10,2.6-11.5,3.3c-3.2,2.1-4.8,4.4-4.8,7c0,2.1,1,3.8,3.1,5.1c1.7,1.2,3.7,1.8,5.9,1.8
			c4.9,0,9.8-1.9,14.8-5.7c2,3.5,3.5,15.6,4.6,36.3c1.2,21.6,2.4,34,3.5,37c1.3,3.9,3.9,5.9,7.7,5.9c4,0,6.2-2.1,6.4-6.2
			c0.2-3.4-0.3-13.7-1.6-31c-1.6-18.5-2.4-30.6-2.4-36.5c0-2.7,0.1-4.7,0.4-6c9.2,0,14.9-0.2,17.2-0.5c6.6-0.9,10.5-3.2,11.7-7.1
			c0.2-0.9,0.4-1.6,0.4-2.4C1010-173.2,1006.8-175,1000.5-175z"/>
	</g>
</g>
</svg>
